<mxfile host="app.diagrams.net" modified="2022-09-26T16:26:53.735Z" agent="5.0 (Windows NT 10.0; Win64; x64) AppleWebKit/537.36 (KHTML, like Gecko) Chrome/105.0.0.0 Safari/537.36" etag="zzb0T_v4QawQ8wgB2H2-" version="20.3.3" type="github">
  <diagram id="_FwiTyVVHIKA8jnmTa-8" name="Сторінка-1">
    <mxGraphModel dx="1405" dy="800" grid="1" gridSize="10" guides="1" tooltips="1" connect="1" arrows="1" fold="1" page="1" pageScale="1" pageWidth="3300" pageHeight="4681" math="0" shadow="0">
      <root>
        <mxCell id="0" />
        <mxCell id="1" parent="0" />
        <mxCell id="B6NBEBJOkaVTiGiDQtky-1" value="&amp;lt;&amp;lt;Смартфон&amp;gt;&amp;gt;" style="verticalAlign=top;align=center;spacingTop=8;spacingLeft=2;spacingRight=12;shape=cube;size=10;direction=south;fontStyle=4;html=1;" vertex="1" parent="1">
          <mxGeometry x="120" y="160" width="240" height="200" as="geometry" />
        </mxCell>
        <mxCell id="B6NBEBJOkaVTiGiDQtky-3" value="&amp;lt;&amp;lt;OC Androind/IOS&amp;gt;&amp;gt;" style="verticalAlign=top;align=center;spacingTop=8;spacingLeft=2;spacingRight=12;shape=cube;size=10;direction=south;fontStyle=4;html=1;" vertex="1" parent="1">
          <mxGeometry x="140" y="220" width="180" height="120" as="geometry" />
        </mxCell>
        <mxCell id="B6NBEBJOkaVTiGiDQtky-4" value="*,apk &#xa;(Kobiton)" style="shape=module;align=left;spacingLeft=20;align=center;verticalAlign=middle;" vertex="1" parent="1">
          <mxGeometry x="175" y="270" width="110" height="60" as="geometry" />
        </mxCell>
        <mxCell id="B6NBEBJOkaVTiGiDQtky-5" value="" style="ellipse;whiteSpace=wrap;html=1;aspect=fixed;" vertex="1" parent="1">
          <mxGeometry x="160" y="400" width="40" height="40" as="geometry" />
        </mxCell>
        <mxCell id="B6NBEBJOkaVTiGiDQtky-6" value="" style="ellipse;whiteSpace=wrap;html=1;aspect=fixed;" vertex="1" parent="1">
          <mxGeometry x="280" y="400" width="40" height="40" as="geometry" />
        </mxCell>
        <mxCell id="B6NBEBJOkaVTiGiDQtky-8" value="" style="endArrow=none;html=1;rounded=0;" edge="1" parent="1">
          <mxGeometry width="50" height="50" relative="1" as="geometry">
            <mxPoint x="180" y="400" as="sourcePoint" />
            <mxPoint x="180" y="360" as="targetPoint" />
          </mxGeometry>
        </mxCell>
        <mxCell id="B6NBEBJOkaVTiGiDQtky-9" value="" style="endArrow=none;html=1;rounded=0;" edge="1" parent="1">
          <mxGeometry width="50" height="50" relative="1" as="geometry">
            <mxPoint x="299.5" y="400" as="sourcePoint" />
            <mxPoint x="299.5" y="360" as="targetPoint" />
          </mxGeometry>
        </mxCell>
        <mxCell id="B6NBEBJOkaVTiGiDQtky-10" value="Мікрофон" style="text;html=1;strokeColor=none;fillColor=none;align=center;verticalAlign=middle;whiteSpace=wrap;rounded=0;" vertex="1" parent="1">
          <mxGeometry x="270" y="460" width="60" height="30" as="geometry" />
        </mxCell>
        <mxCell id="B6NBEBJOkaVTiGiDQtky-11" value="Сенсорний екран" style="text;html=1;strokeColor=none;fillColor=none;align=center;verticalAlign=middle;whiteSpace=wrap;rounded=0;" vertex="1" parent="1">
          <mxGeometry x="150" y="460" width="60" height="30" as="geometry" />
        </mxCell>
        <mxCell id="B6NBEBJOkaVTiGiDQtky-12" value="" style="endArrow=none;html=1;rounded=0;" edge="1" parent="1">
          <mxGeometry width="50" height="50" relative="1" as="geometry">
            <mxPoint x="360" y="260" as="sourcePoint" />
            <mxPoint x="480" y="260" as="targetPoint" />
          </mxGeometry>
        </mxCell>
        <mxCell id="B6NBEBJOkaVTiGiDQtky-13" value="" style="endArrow=none;dashed=1;html=1;dashPattern=1 3;strokeWidth=2;rounded=0;" edge="1" parent="1">
          <mxGeometry width="50" height="50" relative="1" as="geometry">
            <mxPoint x="440" y="460" as="sourcePoint" />
            <mxPoint x="440" y="80" as="targetPoint" />
          </mxGeometry>
        </mxCell>
        <mxCell id="B6NBEBJOkaVTiGiDQtky-14" value="&amp;lt;&amp;lt;Cервер 1&amp;gt;&amp;gt;" style="verticalAlign=top;align=center;spacingTop=8;spacingLeft=2;spacingRight=12;shape=cube;size=10;direction=south;fontStyle=4;html=1;" vertex="1" parent="1">
          <mxGeometry x="480" y="150" width="270" height="240" as="geometry" />
        </mxCell>
        <mxCell id="B6NBEBJOkaVTiGiDQtky-15" value="&amp;lt;&amp;lt;OC Linux&amp;gt;&amp;gt;" style="verticalAlign=top;align=center;spacingTop=8;spacingLeft=2;spacingRight=12;shape=cube;size=10;direction=south;fontStyle=4;html=1;" vertex="1" parent="1">
          <mxGeometry x="495" y="190" width="225" height="180" as="geometry" />
        </mxCell>
        <mxCell id="B6NBEBJOkaVTiGiDQtky-17" value="&amp;lt;&amp;lt;Application Server &lt;br&gt;Node.js&amp;gt;&amp;gt;" style="verticalAlign=top;align=center;spacingTop=8;spacingLeft=2;spacingRight=12;shape=cube;size=10;direction=south;fontStyle=4;html=1;" vertex="1" parent="1">
          <mxGeometry x="520" y="230" width="170" height="120" as="geometry" />
        </mxCell>
        <mxCell id="B6NBEBJOkaVTiGiDQtky-16" value="*.js" style="shape=module;align=left;spacingLeft=20;align=center;verticalAlign=middle;" vertex="1" parent="1">
          <mxGeometry x="550" y="280" width="105" height="50" as="geometry" />
        </mxCell>
        <mxCell id="B6NBEBJOkaVTiGiDQtky-18" value="" style="endArrow=none;html=1;rounded=0;" edge="1" parent="1">
          <mxGeometry width="50" height="50" relative="1" as="geometry">
            <mxPoint x="750" y="259.5" as="sourcePoint" />
            <mxPoint x="830" y="260" as="targetPoint" />
          </mxGeometry>
        </mxCell>
        <mxCell id="B6NBEBJOkaVTiGiDQtky-19" value="" style="endArrow=none;dashed=1;html=1;dashPattern=1 3;strokeWidth=2;rounded=0;" edge="1" parent="1">
          <mxGeometry width="50" height="50" relative="1" as="geometry">
            <mxPoint x="800" y="460" as="sourcePoint" />
            <mxPoint x="800" y="80" as="targetPoint" />
          </mxGeometry>
        </mxCell>
        <mxCell id="B6NBEBJOkaVTiGiDQtky-20" value="&amp;lt;&amp;lt;Cервер 2&amp;gt;&amp;gt;" style="verticalAlign=top;align=center;spacingTop=8;spacingLeft=2;spacingRight=12;shape=cube;size=10;direction=south;fontStyle=4;html=1;" vertex="1" parent="1">
          <mxGeometry x="830" y="140" width="280" height="250" as="geometry" />
        </mxCell>
        <mxCell id="B6NBEBJOkaVTiGiDQtky-21" value="&amp;lt;&amp;lt;OC Linux&amp;gt;&amp;gt;" style="verticalAlign=top;align=center;spacingTop=8;spacingLeft=2;spacingRight=12;shape=cube;size=10;direction=south;fontStyle=4;html=1;" vertex="1" parent="1">
          <mxGeometry x="845" y="180" width="235" height="190" as="geometry" />
        </mxCell>
        <mxCell id="B6NBEBJOkaVTiGiDQtky-22" value="&amp;lt;&amp;lt;Database Server&lt;br&gt;Maria DB&amp;gt;&amp;gt;" style="verticalAlign=top;align=center;spacingTop=8;spacingLeft=2;spacingRight=12;shape=cube;size=10;direction=south;fontStyle=4;html=1;" vertex="1" parent="1">
          <mxGeometry x="872.5" y="230" width="180" height="130" as="geometry" />
        </mxCell>
        <mxCell id="B6NBEBJOkaVTiGiDQtky-25" value="Relation&amp;nbsp;&lt;br&gt;Database" style="shape=cylinder3;whiteSpace=wrap;html=1;boundedLbl=1;backgroundOutline=1;size=15;points=[[0,0.25,0,0,0],[0,0.38,0,0,0],[0,0.5,0,0,0],[0,0.63,0,0,0],[0,0.75,0,0,0],[0.14,0.07,0,0,0],[0.14,0.93,0,0,0],[0.5,0,0,0,0],[0.5,0.5,0,0,0],[0.5,1,0,0,0],[0.58,0.04,0,0,0],[0.86,0.07,0,0,0],[0.86,0.93,0,0,0],[1,0.25,0,0,0],[1,0.5,0,0,0],[1,0.63,0,0,0],[1,0.75,0,0,0]];" vertex="1" parent="1">
          <mxGeometry x="908.75" y="280" width="107.5" height="70" as="geometry" />
        </mxCell>
      </root>
    </mxGraphModel>
  </diagram>
</mxfile>
